Coordinates
version=1
nRows=10
nColumns=38
inDegrees=yes

Units are S.I. units (second, meters, Newtons, ...)
Angles are in degrees.

endheader
time	pelvis_tilt	pelvis_list	pelvis_rotation	pelvis_tx	pelvis_ty	pelvis_tz	hip_flexion_r	hip_adduction_r	hip_rotation_r	knee_angle_r	ankle_angle_r	subtalar_angle_r	mtp_angle_r	hip_flexion_l	hip_adduction_l	hip_rotation_l	knee_angle_l	ankle_angle_l	subtalar_angle_l	mtp_angle_l	lumbar_extension	lumbar_bending	lumbar_rotation	arm_flex_r	arm_add_r	arm_rot_r	elbow_flex_r	pro_sup_r	wrist_flex_r	wrist_dev_r	arm_flex_l	arm_add_l	arm_rot_l	elbow_flex_l	pro_sup_l	wrist_flex_l	wrist_dev_l
      1.65000000	     -1.14361727	      2.07657888	     -5.36769860	      0.60509323	      0.87081954	     -0.18326587	    -10.79605286	     -1.13354566	     -0.91487017	    -25.86809147	     18.34062837	     -1.35981719	      0.00000000	     32.47684231	      1.22263604	     -9.90849203	    -20.22754738	     -0.29984868	     -5.69610979	      0.00000000	     -2.80669077	     -0.58145509	     11.16809131	     12.12354187	    -17.67825604	     28.17241355	     59.93045853	     44.81901513	      0.00000000	      0.00000000	    -24.05621875	     -6.29349103	     17.99640855	     17.64140322	     44.81901513	      0.00000000	      0.00000000
      1.66000000	     -1.11485366	      3.00722240	     -5.15902737	      0.62174196	      0.87089201	     -0.18521765	    -10.05954857	     -3.03154863	     -3.05601825	    -29.11767489	     16.97101739	      2.53444565	      0.00000000	     32.10095519	      2.31550380	    -10.68428993	    -20.31013836	     -1.56607386	     -6.43555379	      0.00000000	     -2.43518851	     -1.62552219	     10.79094446	     11.63800758	    -17.04466872	     27.93200146	     58.42822025	     44.82761269	      0.00000000	      0.00000000	    -23.95308068	     -6.23435329	     17.29170853	     17.48848047	     44.82761269	      0.00000000	      0.00000000
      1.67000000	     -1.00851943	      3.72344955	     -4.67491097	      0.63879637	      0.87186172	     -0.18764989	     -9.73951582	     -4.32340302	     -4.15383217	    -31.64030548	     14.03194164	      3.88647043	      0.00000000	     31.27692891	      3.61370614	     -9.57964231	    -20.39155588	     -3.74508346	     -7.28262202	      0.00000000	     -2.13486495	     -2.41405963	     10.15456249	     11.05427402	    -16.57324351	     28.12357956	     57.13821669	     44.83603700	      0.00000000	      0.00000000	    -23.82103642	     -6.23466392	     16.71613964	     17.55729788	     44.83603700	      0.00000000	      0.00000000
      1.68000000	     -1.02807567	      4.37191493	     -4.46520904	      0.65505262	      0.87273505	     -0.18935283	     -8.79471949	     -5.37098379	     -4.44453454	    -34.71535123	     10.54530091	      3.67261231	      0.00000000	     30.60890406	      4.44116480	     -9.39514907	    -20.96118001	     -4.82260738	     -7.93378147	      0.00000000	     -1.82098074	     -3.13419728	      9.74226113	     10.21106966	    -16.27422246	     28.31829357	     56.78870094	     44.83705184	      0.00000000	      0.00000000	    -23.47816277	     -6.27038592	     16.66062794	     17.66813862	     44.83705184	      0.00000000	      0.00000000
      1.69000000	     -1.13736057	      5.28318532	     -4.15750354	      0.67107767	      0.87388880	     -0.19135900	     -7.46030524	     -6.75772136	     -4.99040867	    -38.10547584	      6.54358257	      3.60033247	      0.00000000	     30.09513960	      5.95441731	     -8.30130103	    -21.39164733	     -5.01176413	    -10.80356064	      0.00000000	     -1.39152398	     -4.16601830	      9.32429895	      9.70494626	    -15.55811042	     28.46408117	     54.51231666	     44.84488542	      0.00000000	      0.00000000	    -23.07462246	     -6.41647877	     16.23775282	     17.86630728	     44.84488542	      0.00000000	      0.00000000
      1.70000000	     -1.07345582	      5.89777494	     -3.68877818	      0.68701569	      0.87552480	     -0.19343900	     -6.23805969	     -7.82245115	     -5.81206458	    -41.30171432	      1.48223828	      2.73743123	      0.00000000	     29.80326290	      6.98229222	     -8.01264340	    -22.85016671	     -4.40592687	    -11.45153296	      0.00000000	     -1.29640480	     -4.89062378	      8.79415889	      8.82979036	    -15.27996300	     28.67392728	     53.93823044	     44.84620985	      0.00000000	      0.00000000	    -22.43627145	     -6.56341242	     16.18444085	     18.06651975	     44.84620985	      0.00000000	      0.00000000
      1.71000000	     -1.04495294	      6.49830816	     -3.34403485	      0.70271605	      0.87724576	     -0.19545181	     -4.75134981	     -8.62721211	     -5.87950647	    -44.46443076	     -4.17233929	      0.20524577	      0.00000000	     29.39648436	      8.20008503	     -6.53812096	    -24.00197658	     -3.89503158	    -12.45635749	      0.00000000	     -1.16333507	     -5.54529721	      8.32154470	      7.98268237	    -14.91409782	     28.83569942	     52.78647660	     44.84833157	      0.00000000	      0.00000000	    -21.70972511	     -6.74671399	     16.14025082	     18.34936768	     44.84833157	      0.00000000	      0.00000000
      1.72000000	     -1.00544162	      6.98756868	     -2.99048125	      0.71784001	      0.87904837	     -0.19724777	     -3.09883460	     -8.98289690	     -5.17930464	    -47.57930022	     -9.77512650	     -3.01314363	      0.00000000	     28.89887710	      9.09651493	     -5.92480658	    -24.99469889	     -3.10183026	    -13.39362103	      0.00000000	     -1.16580301	     -6.10418465	      7.86328691	      7.35156197	    -14.39801145	     29.00542552	     51.11848474	     44.85119121	      0.00000000	      0.00000000	    -20.87758747	     -6.94996590	     16.14386586	     18.74503260	     44.85119121	      0.00000000	      0.00000000
      1.73000000	     -0.96092683	      7.52138923	     -2.61395963	      0.73246797	      0.88073359	     -0.19892258	     -1.33130952	     -9.64058029	     -4.96738623	    -50.81125843	    -12.76245907	     -4.27775943	      0.00000000	     28.15436872	      9.99186714	     -5.65774833	    -25.54493192	     -2.05506232	    -13.58892540	      0.00000000	     -1.25383332	     -6.73630580	      7.33578985	      6.67057618	    -13.99478928	     29.20096818	     50.09468074	     44.85266169	      0.00000000	      0.00000000	    -19.90035109	     -7.18228549	     16.17777579	     19.12809541	     44.85266169	      0.00000000	      0.00000000
      1.74000000	     -0.99291720	      8.19408247	     -2.36176751	      0.74642170	      0.88212629	     -0.20046002	      0.73754651	    -10.48531426	     -4.67605613	    -54.24146220	    -12.51828403	     -5.34006719	      0.00000000	     27.41982295	     10.92354381	     -5.71714594	    -25.87065166	     -0.88245923	    -13.34636774	      0.00000000	     -1.30405447	     -7.50502751	      6.77102141	      7.14695771	    -12.80385934	     30.03798188	     45.07694854	     44.86186388	      0.00000000	      0.00000000	    -19.09041400	     -7.57310623	     16.62208136	     20.18510331	     44.86186388	      0.00000000	      0.00000000
